<svg width="180" height="32" viewBox="0 0 180 32" fill="none" xmlns="http://www.w3.org/2000/svg">
<g id="Icons">
<g id="Icons / 24px / Arrow right">
<path id="Rectangle 1468 copy" d="M161.8 5.6L170.2 14L161.8 22.4" stroke="#5551FF" stroke-width="2" stroke-linecap="round" stroke-linejoin="round"/>
</g>
<g id="Icons / 24px / Arrow left">
<path id="Rectangle 1468 copy_2" d="M142.2 22.4L133.8 14L142.2 5.6" stroke="#5551FF" stroke-width="2" stroke-linecap="round" stroke-linejoin="round"/>
</g>
<g id="Icons / 24px / Cross circle black" clip-path="url(#clip0_1_505)">
<circle id="Ellipse 1844" cx="112" cy="12" r="11.0769" fill="white"/>
<path id="Vector" opacity="0.7" d="M116.615 7.38461L107.385 16.6154M116.615 16.6154L107.385 7.38461L116.615 16.6154Z" stroke="black" stroke-width="1.5" stroke-linecap="round" stroke-linejoin="round"/>
</g>
<g id="Icons / 24px / Back">
<path id="Union" fill-rule="evenodd" clip-rule="evenodd" d="M96 13C96.5523 13 97 12.5523 97 12C97 11.4477 96.5523 11 96 11L82.4142 11L87.7071 5.70711C88.0976 5.31658 88.0976 4.68342 87.7071 4.29289C87.3166 3.90237 86.6834 3.90237 86.2929 4.29289L79.2929 11.2929C78.9024 11.6834 78.9024 12.3166 79.2929 12.7071L86.2929 19.7071C86.6834 20.0976 87.3166 20.0976 87.7071 19.7071C88.0976 19.3166 88.0976 18.6834 87.7071 18.2929L82.4142 13L96 13Z" fill="black"/>
</g>
<g id="Icons / 24px / Cross circle" clip-path="url(#clip1_1_505)">
<circle id="Ellipse 1844_2" cx="64" cy="12" r="11.0769" fill="white"/>
<path id="Vector_2" opacity="0.4" d="M68.6154 7.38461L59.3846 16.6154M68.6154 16.6154L59.3846 7.38461L68.6154 16.6154Z" stroke="black" stroke-width="1.5" stroke-linecap="round" stroke-linejoin="round"/>
</g>
<g id="Icons / 24px / Check">
<path id="Vector_3" d="M35.3333 10L40.3333 15L48.6667 5" stroke="black" stroke-width="1.5" stroke-linecap="round" stroke-linejoin="round"/>
</g>
<g id="Icons / 32px / Menu">
<path id="Vector_4" d="M16 22.6667L25.3333 22.6667" stroke="black" stroke-width="2" stroke-linecap="round" stroke-linejoin="round"/>
<path id="Vector_5" d="M6.66667 16H25.3333" stroke="black" stroke-width="2" stroke-linecap="round" stroke-linejoin="round"/>
<path id="Vector_6" d="M6.66667 9.33333H25.3333" stroke="black" stroke-width="2" stroke-linecap="round" stroke-linejoin="round"/>
</g>
</g>
<defs>
<clipPath id="clip0_1_505">
<rect width="24" height="24" fill="white" transform="translate(100)"/>
</clipPath>
<clipPath id="clip1_1_505">
<rect width="24" height="24" fill="white" transform="translate(52)"/>
</clipPath>
</defs>
</svg>
